<svg width="256" height="71" viewBox="0 0 256 71" fill="none" xmlns="http://www.w3.org/2000/svg">
<g clip-path="url(#clip0_117_80)">
<path fill-rule="evenodd" clip-rule="evenodd" d="M214.259 33.4129C210.625 38.1124 203.949 40.2124 202.596 46.7238C202.4 46.7785 202.203 46.8332 202.006 46.8842C199.975 47.5696 197.817 47.6426 195.786 47.1394C194.718 46.8769 193.686 46.4504 192.724 45.8707C192.286 44.7514 191.411 43.8764 190.095 43.2493C177.954 53.392 165.868 50.0561 166 38.8853C166.062 33.4129 170.101 30.9629 174.618 28.3306C177.149 26.8577 175.391 24.1124 173.43 25.2243C171.118 26.5295 168.891 28.0499 166.911 29.829C166.86 29.5556 166.813 29.2785 166.769 28.9978C166.623 28.0936 166.525 27.1639 166.47 26.2051C166.463 23.2884 167.381 20.4191 169.142 18.0311C171.315 15.0853 174.564 13.1275 178.169 12.5879C179.27 10.1233 182.471 7.76079 187.78 5.49308C190.897 3.95819 194.528 3.81965 197.744 5.11392C207.814 17.5243 198.094 20.3134 188.254 24.6118C183.689 26.5988 179.383 29.4025 177.83 35.79C177.083 38.8707 180.412 39.2207 180.999 36.6795C182.078 32.0457 184.903 29.6577 189.574 27.6196C194.579 25.4394 202.228 22.9056 204.554 17.5499C206.796 12.3764 203.493 6.97694 200.311 3.04673L199.99 2.65662C202.567 0.396208 206.093 -0.500667 209.458 0.27225C211.904 0.833709 214.037 2.21912 215.532 4.14412C211.667 7.37798 208.153 11.3446 209.177 16.7879C209.728 19.7301 211.459 22.1144 213.148 24.5061C214.055 25.7967 215.269 27.4848 215.623 29.0415C216.009 30.7113 215.269 32.1222 214.263 33.4165L214.259 33.4129Z" fill="black"/>
<path fill-rule="evenodd" clip-rule="evenodd" d="M189.18 47.894C193.372 50.1946 198.265 50.869 202.921 49.7826C203.293 51.5289 201.663 52.4076 199.629 53.5305C192.559 57.4352 196.814 56.4836 192.782 62.9513C189.282 68.431 179.03 70.8956 177.05 70.542C175.413 70.2466 181.742 68.2779 181.669 62.2185C181.615 56.7534 181.4 55.5722 178.352 52.7539C182.49 52.7466 186.427 50.9784 189.18 47.894Z" fill="black"/>
<path fill-rule="evenodd" clip-rule="evenodd" d="M208.707 53.7165C204.011 49.7827 204.835 45.4223 211.175 40.6353C231.668 25.8113 204.317 21.3124 214.766 9.37591C216.236 7.70248 217.956 6.22591 220.06 5.43112C222.725 4.42487 225.733 4.49414 228.405 5.72279C232.109 7.42539 234.541 11.0676 234.68 15.1363C237.884 13.9004 241.523 14.6441 243.984 17.0431C246.438 19.4384 247.269 23.0514 246.099 26.2744C249.445 26.628 252.428 28.5494 254.134 31.4405C255.731 34.1494 256.037 37.416 254.987 40.3582L254.973 40.3546C254.863 40.6426 254.732 40.9306 254.593 41.2077C253.066 39.8988 251.046 38.991 248.687 38.4697L248.22 38.3639L248.115 37.9884L248.107 37.9665C245.756 29.9348 240.746 26.2999 234.082 26.6389C232.857 26.7447 231.231 27.0363 229.204 27.503C228.686 27.6525 228.165 27.8238 227.636 28.0134C227.118 28.1994 226.597 28.3999 226.065 28.6186C223.586 29.6467 224.876 32.6801 227.33 31.652C228.376 31.2181 229.371 30.8645 230.327 30.5874C230.961 30.4051 231.577 30.2556 232.171 30.1389C239.164 28.8264 243.572 32.3374 245.402 40.6717C249.041 41.8603 253.011 42.1738 254.345 46.0967C254.79 47.4056 254.834 48.8566 254.411 50.2493C253.583 52.9947 251.119 54.927 248.246 55.0801C247.415 57.016 245.676 58.4197 243.598 58.8134C242.161 59.0905 240.688 58.8535 239.427 58.1863C238.468 57.3514 237.421 56.7462 236.291 56.3634C234.516 57.9457 232.113 58.6749 229.732 58.2993C227.527 57.9566 225.583 56.7171 224.355 54.9087C226.878 50.8983 227.997 47.9379 228.945 43.3296C229.43 40.9816 226.254 40.0009 225.722 42.6624C224.913 46.7384 223.666 51.5728 220.06 53.9462C217.402 55.6962 213.993 56.1191 210.905 54.9014C210.111 54.5915 209.378 54.1905 208.707 53.7056V53.7165Z" fill="black"/>
<path d="M0.554167 42.0825C0.171354 42.0825 0 42.2903 0 42.6367V69.2659C0 69.6122 0.171354 69.82 0.554167 69.82H4.1599C4.50625 69.82 4.71406 69.6122 4.71406 69.2659V42.6367C4.71406 42.2903 4.50625 42.0825 4.1599 42.0825H0.554167Z" fill="black"/>
<path d="M25.0295 42.0825C24.6467 42.0825 24.4753 42.2903 24.4753 42.6367V57.2674H24.2675L18.9956 42.5346C18.8935 42.2211 18.6857 42.0825 18.3722 42.0825H14.9415C14.5951 42.0825 14.3873 42.2903 14.3873 42.6367V69.2659C14.3873 69.6122 14.5951 69.82 14.9415 69.82H18.5472C18.9264 69.82 19.1014 69.6122 19.1014 69.2659V54.5659H19.2727L24.5774 69.3679C24.6831 69.6815 24.8909 69.82 25.2045 69.82H28.6352C28.9816 69.82 29.1894 69.6122 29.1894 69.2659V42.6367C29.1894 42.2903 28.9816 42.0825 28.6352 42.0825H25.0295Z" fill="black"/>
<path d="M52.7293 42.6367C52.7293 42.2903 52.5179 42.0825 52.1715 42.0825H39.4148C39.032 42.0825 38.8606 42.2903 38.8606 42.6367V69.2659C38.8606 69.6122 39.032 69.82 39.4148 69.82H43.0205C43.3668 69.82 43.5747 69.6122 43.5747 69.2659V58.2044H50.0934C50.4398 58.2044 50.6476 58.033 50.6476 57.6502V54.183C50.6476 53.8367 50.4398 53.6289 50.0934 53.6289H43.5747V46.658H52.1715C52.5179 46.658 52.7293 46.4502 52.7293 46.1039V42.6367Z" fill="black"/>
<path d="M62.9524 42.0825C62.5695 42.0825 62.3982 42.2903 62.3982 42.6367V69.2659C62.3982 69.6122 62.5695 69.82 62.9524 69.82H66.5581C66.9044 69.82 67.1123 69.6122 67.1123 69.2659V42.6367C67.1123 42.2903 66.9044 42.0825 66.5581 42.0825H62.9524Z" fill="black"/>
<path d="M87.4276 42.0825C87.0448 42.0825 86.8735 42.2903 86.8735 42.6367V57.2674H86.6657L81.3938 42.5346C81.2917 42.2211 81.0839 42.0825 80.7704 42.0825H77.3396C76.9933 42.0825 76.7855 42.2903 76.7855 42.6367V69.2659C76.7855 69.6122 76.9933 69.82 77.3396 69.82H80.9454C81.3245 69.82 81.4995 69.6122 81.4995 69.2659V54.5659H81.6709L86.9756 69.3679C87.0813 69.6815 87.2891 69.82 87.6026 69.82H91.0334C91.3797 69.82 91.5875 69.6122 91.5875 69.2659V42.6367C91.5875 42.2903 91.3797 42.0825 91.0334 42.0825H87.4276Z" fill="black"/>
<path d="M101.813 42.0825C101.43 42.0825 101.259 42.2903 101.259 42.6367V69.2659C101.259 69.6122 101.43 69.82 101.813 69.82H105.419C105.765 69.82 105.973 69.6122 105.973 69.2659V42.6367C105.973 42.2903 105.765 42.0825 105.419 42.0825H101.813Z" fill="black"/>
<path d="M115.504 42.0825C115.158 42.0825 114.95 42.2903 114.95 42.6367V46.1039C114.95 46.4502 115.158 46.658 115.504 46.658H119.529V69.2659C119.529 69.645 119.737 69.82 120.083 69.82H123.689C124.068 69.82 124.243 69.645 124.243 69.2659V46.658H128.264C128.647 46.658 128.818 46.4502 128.818 46.1039V42.6367C128.818 42.2903 128.647 42.0825 128.264 42.0825H115.504Z" fill="black"/>
<path d="M150.208 42.0825C149.792 42.0825 149.548 42.2575 149.409 42.6367L145.526 52.5898L141.644 42.6367C141.505 42.2575 141.264 42.0825 140.845 42.0825H137.378C136.86 42.0825 136.616 42.3961 136.824 42.881L143.171 58.3101V69.1273C143.171 69.5757 143.412 69.82 143.864 69.82H147.193C147.641 69.82 147.885 69.5757 147.885 69.1273V58.3101L154.229 42.881C154.437 42.3961 154.196 42.0825 153.675 42.0825H150.208Z" fill="black"/>
</g>
<defs>
<clipPath id="clip0_117_80">
<rect width="256" height="71" fill="white"/>
</clipPath>
</defs>
</svg>
