<svg width="200" height="82.26" viewBox="0 0 180 75" fill="none" xmlns="http://www.w3.org/2000/svg">
<path d="M62.2208 60.5986V41.3384H67.1493V60.5986H62.2208ZM62.2208 38.6474V33.7643H67.1493V38.6474H62.2208Z" fill="#1D3557"/>
<path d="M89.5091 60.5986H84.5807V49.7893C84.5807 48.2473 84.3086 47.1248 83.7643 46.418C83.2277 45.7037 82.4831 45.3446 81.5269 45.3446C81.0318 45.3446 80.5291 45.4467 80.0151 45.647C79.5011 45.8397 79.0173 46.1119 78.5638 46.4633C78.1103 46.8186 77.6945 47.2419 77.3241 47.7332C76.9613 48.217 76.6929 48.7575 76.5229 49.3509V60.5986H71.5944V41.3384H76.0542V44.9062C76.7572 43.6779 77.7852 42.7217 79.1383 42.0338C80.4875 41.3497 82.0031 41.0058 83.6888 41.0058C84.8982 41.0058 85.8809 41.2288 86.6367 41.671C87.3926 42.1056 87.9747 42.6801 88.3904 43.3944C88.8137 44.1012 89.1047 44.9062 89.2673 45.8133C89.426 46.7203 89.5091 47.6425 89.5091 48.5799V60.5986Z" fill="#1D3557"/>
<path d="M94.9762 60.5986V46.1156H92.4364V42.3664H94.9762V41.1872C94.9762 38.791 95.5507 36.8899 96.6996 35.4877C97.8562 34.0893 99.4284 33.3864 101.416 33.3864C102.977 33.3864 104.561 33.7719 106.163 34.5353L105.166 38.2392C104.791 38.0502 104.353 37.8877 103.85 37.7554C103.355 37.6156 102.898 37.5438 102.475 37.5438C100.759 37.5438 99.9046 38.7003 99.9046 41.0058V42.3664H104.606V46.1156H99.9046V60.5986H94.9762Z" fill="#1D3557"/>
<path d="M107.398 60.5986V41.3384H112.326V60.5986H107.398ZM107.398 38.6474V33.7643H112.326V38.6474H107.398Z" fill="#1D3557"/>
<path d="M134.686 60.5986H129.758V49.7893C129.758 48.2473 129.486 47.1248 128.941 46.418C128.405 45.7037 127.66 45.3446 126.704 45.3446C126.209 45.3446 125.706 45.4467 125.192 45.647C124.678 45.8397 124.194 46.1119 123.741 46.4633C123.287 46.8186 122.872 47.2419 122.501 47.7332C122.138 48.217 121.87 48.7575 121.7 49.3509V60.5986H116.771V41.3384H121.231V44.9062C121.934 43.6779 122.962 42.7217 124.315 42.0338C125.665 41.3497 127.18 41.0058 128.866 41.0058C130.075 41.0058 131.058 41.2288 131.814 41.671C132.57 42.1056 133.152 42.6801 133.567 43.3944C133.991 44.1012 134.282 44.9062 134.444 45.8133C134.603 46.7203 134.686 47.6425 134.686 48.5799V60.5986Z" fill="#1D3557"/>
<path d="M138.974 60.5986V41.3384H143.903V60.5986H138.974ZM138.974 38.6474V33.7643H143.903V38.6474H138.974Z" fill="#1D3557"/>
<path d="M159.898 59.6008C159.233 59.9032 158.42 60.2017 157.464 60.4928C156.515 60.7838 155.514 60.9312 154.455 60.9312C153.767 60.9312 153.125 60.8443 152.52 60.6742C151.923 60.5041 151.402 60.2282 150.948 59.8427C150.494 59.461 150.132 58.9734 149.859 58.3763C149.587 57.7715 149.451 57.0421 149.451 56.1842V45.1179H146.927V41.3384H149.451V35.0796H154.38V41.3384H158.431V45.1179H154.38V54.5363C154.38 55.2242 154.554 55.7079 154.909 55.9876C155.272 56.2711 155.71 56.4109 156.224 56.4109C156.738 56.4109 157.237 56.3278 157.721 56.1539C158.212 55.9839 158.605 55.8365 158.9 55.7155L159.898 59.6008Z" fill="#1D3557"/>
<path d="M162.871 64.3478C163.283 64.4688 163.688 64.5595 164.081 64.62C164.474 64.6804 164.807 64.7107 165.079 64.7107C165.4 64.7107 165.691 64.6502 165.955 64.5293C166.228 64.4083 166.473 64.1891 166.696 63.8792C166.915 63.5768 167.138 63.1535 167.361 62.6093C167.581 62.0726 167.815 61.4036 168.057 60.5986L160.453 41.3384H165.517L170.748 56.3354L175.374 41.3384H180L171.912 64.4234C171.447 65.7727 170.65 66.8763 169.523 67.7342C168.393 68.5884 166.999 69.0193 165.336 69.0193C164.943 69.0193 164.542 68.989 164.141 68.9286C163.737 68.8681 163.314 68.7623 162.871 68.6111V64.3478Z" fill="#1D3557"/>
<path d="M32.6789 34.5975L19.8472 35.7445L27.2077 46.259L40.039 45.1087L32.6789 34.5975Z" fill="#457B9D"/>
<path d="M19.343 13.4781C18.7092 13.9218 18.0999 14.3954 17.5139 14.8997C16.927 15.4027 16.3658 15.9347 15.8319 16.4927C15.2968 17.0516 14.7914 17.6349 14.3145 18.2433C13.8367 18.8506 13.391 19.4805 12.9754 20.1327C12.5598 20.7849 12.1771 21.4556 11.8272 22.1449C11.4785 22.8333 11.163 23.5382 10.8819 24.2587C10.6021 24.9784 10.3582 25.7108 10.1495 26.4547C9.94079 27.1986 9.7688 27.9512 9.63474 28.7114C9.49947 29.4725 9.40166 30.2381 9.3425 31.0073C9.28298 31.7786 9.26079 32.549 9.27762 33.321C9.29324 34.0939 9.34776 34.863 9.43876 35.63C9.53098 36.3962 9.65918 37.157 9.82581 37.9108C9.99243 38.6646 10.1958 39.4089 10.435 40.1426C10.6751 40.8775 10.9497 41.5972 11.2593 42.305C11.5701 43.012 11.9138 43.7014 12.292 44.3757C12.6706 45.0479 13.0803 45.7001 13.522 46.3335C13.9841 46.996 14.4793 47.6336 15.0075 48.2461C15.5349 48.8575 16.0941 49.4393 16.6837 49.9926C17.2714 50.5456 17.889 51.0666 18.5326 51.555C19.175 52.0443 19.8429 52.4977 20.5337 52.917C21.2246 53.3362 21.9359 53.7176 22.6674 54.0633C23.398 54.4077 24.1449 54.7136 24.9094 54.9801C25.6719 55.2463 26.4466 55.4732 27.2339 55.6587C28.02 55.8452 28.8145 55.9895 29.6176 56.0918L50.7061 59.8761C51.0467 59.8905 51.3595 59.8033 51.6428 59.6122C51.8723 59.419 52.0309 59.1761 52.1167 58.8885L55.8138 37.9874C55.9418 37.4119 56.0492 36.8329 56.134 36.2498C56.2188 35.6667 56.2817 35.0809 56.3237 34.4934C56.3656 33.906 56.3846 33.3166 56.3822 32.7278C56.3798 32.1389 56.354 31.5501 56.3078 30.9631C56.2595 30.3757 56.1915 29.7912 56.1007 29.2101C56.0102 28.6269 55.8985 28.0496 55.7639 27.4756C55.6301 26.9029 55.4743 26.3347 55.2973 25.7724C55.1211 25.2113 54.9237 24.656 54.7068 24.109C54.4879 23.5616 54.2503 23.0237 53.9919 22.4948C53.7328 21.9648 53.4545 21.4462 53.1573 20.9392C52.8604 20.4301 52.5433 19.9334 52.2093 19.4485C51.874 18.9645 51.5226 18.4936 51.153 18.0354C50.7826 17.576 50.3965 17.133 49.9931 16.7039C49.5897 16.2748 49.1698 15.8609 48.7364 15.4637C48.3021 15.0653 47.853 14.6844 47.3904 14.3203C46.9278 13.9562 46.4524 13.61 45.9634 13.2806C45.4741 12.9532 44.9733 12.6429 44.4606 12.3517C43.95 12.0609 43.4275 11.7893 42.894 11.538C42.3617 11.2859 41.8204 11.0545 41.2714 10.8429C40.7203 10.631 40.1643 10.4406 39.5994 10.2709C39.0345 10.1012 38.4648 9.95291 37.8902 9.8261C37.3135 9.69893 36.7341 9.59358 36.1519 9.51003C35.5684 9.42734 34.9826 9.3644 34.3936 9.32534C33.8058 9.28543 33.2173 9.26769 32.628 9.27214C32.0388 9.27658 31.45 9.30236 30.8614 9.35152C30.274 9.39984 29.6891 9.46985 29.1077 9.56276C28.5253 9.65447 27.9476 9.76823 27.3725 9.90368C26.7994 10.0395 26.2312 10.1953 25.6686 10.3744C25.1071 10.5526 24.5527 10.7512 24.0053 10.9702C23.4567 11.19 22.9184 11.4296 22.3904 11.6892C21.8603 11.9484 21.3414 12.2286 20.8331 12.5267C20.3237 12.8257 19.827 13.1428 19.343 13.4781ZM49.6953 31.3564C49.8111 31.5372 49.873 31.7341 49.8808 31.9489C49.8886 32.1638 49.8423 32.366 49.74 32.555L43.1823 46.6009C43.1702 46.6094 43.1484 46.6246 43.1419 46.6437C43.0707 46.8 42.9704 46.9353 42.8429 47.0498C42.6692 47.1679 42.4778 47.235 42.2694 47.2546C42.2548 47.2648 42.2354 47.2783 42.2117 47.2805L26.7761 48.6345C26.5634 48.666 26.3577 48.6403 26.1584 48.5595C25.9591 48.4787 25.7954 48.3532 25.6651 48.1826L16.7599 35.4646C16.6462 35.2842 16.5854 35.0865 16.5764 34.8725C16.5687 34.6576 16.6149 34.4555 16.7152 34.266C16.8124 34.0824 16.9476 33.9299 17.1185 33.8103C17.2894 33.6906 17.4777 33.6166 17.6835 33.5881L32.5012 32.2803L38.706 18.8499C38.8031 18.6663 38.938 18.5159 39.1077 18.3971C39.2785 18.2774 39.4648 18.203 39.6706 18.1745C39.8841 18.1441 40.0887 18.1707 40.2871 18.2503C40.4863 18.3311 40.6501 18.4566 40.7816 18.6264L49.6953 31.3564Z" fill="#1D3557"/>
<path d="M32.6789 34.5975L19.8472 35.7445L27.2077 46.259L40.039 45.1087L32.6789 34.5975Z" fill="#457B9D"/>
<path d="M19.3764 14.3574C18.7426 14.8011 18.1333 15.2747 17.5473 15.779C16.9604 16.282 16.3992 16.814 15.8654 17.372C15.3302 17.9309 14.8248 18.5142 14.3479 19.1226C13.8701 19.7299 13.4245 20.3598 13.0089 21.012C12.5933 21.6642 12.2105 22.3349 11.8606 23.0242C11.5119 23.7126 11.1964 24.4175 10.9153 25.138C10.6355 25.8577 10.3916 26.5901 10.1829 27.334C9.9742 28.0779 9.80221 28.8305 9.66815 29.5907C9.53289 30.3518 9.43507 31.1174 9.37591 31.8866C9.31639 32.6579 9.2942 33.4283 9.31103 34.2003C9.32665 34.9732 9.38118 35.7423 9.47218 36.5093C9.56439 37.2755 9.6926 38.0363 9.85922 38.7901C10.0258 39.5439 10.2292 40.2882 10.4684 41.0219C10.7085 41.7568 10.9831 42.4765 11.2927 43.1843C11.6035 43.8913 11.9472 44.5808 12.3254 45.255C12.704 45.9272 13.1137 46.5794 13.5554 47.2128C14.0175 47.8753 14.5127 48.5129 15.0409 49.1254C15.5683 49.7368 16.1275 50.3187 16.7171 50.8719C17.3048 51.4249 17.9224 51.9459 18.566 52.4343C19.2084 52.9236 19.8763 53.377 20.5671 53.7963C21.258 54.2155 21.9693 54.5969 22.7008 54.9426C23.4314 55.287 24.1783 55.5929 24.9428 55.8595C25.7053 56.1256 26.48 56.3525 27.2673 56.5381C28.0534 56.7245 28.8479 56.8688 29.651 56.9711L50.7396 60.7554C51.0801 60.7698 51.3929 60.6826 51.6762 60.4915C51.9057 60.2983 52.0643 60.0554 52.1501 59.7678L55.8472 38.8667C55.9752 38.2912 56.0827 37.7122 56.1674 37.1291C56.2522 36.546 56.3151 35.9602 56.3571 35.3727C56.399 34.7853 56.418 34.196 56.4156 33.6071C56.4132 33.0182 56.3875 32.4294 56.3412 31.8424C56.2929 31.255 56.2249 30.6705 56.1341 30.0894C56.0436 29.5062 55.9319 28.9289 55.7973 28.3549C55.6635 27.7822 55.5077 27.214 55.3307 26.6517C55.1545 26.0906 54.9571 25.5353 54.7403 24.9883C54.5213 24.4409 54.2837 23.903 54.0254 23.3741C53.7662 22.8441 53.488 22.3255 53.1907 21.8185C52.8939 21.3094 52.5767 20.8127 52.2427 20.3278C51.9074 19.8438 51.556 19.3729 51.1864 18.9147C50.816 18.4553 50.4299 18.0123 50.0265 17.5832C49.6231 17.1541 49.2033 16.7402 48.7698 16.343C48.3355 15.9446 47.8865 15.5637 47.4238 15.1996C46.9612 14.8355 46.4858 14.4893 45.9969 14.1599C45.5076 13.8325 45.0067 13.5222 44.4941 13.231C43.9834 12.9402 43.4609 12.6686 42.9274 12.4173C42.3951 12.1652 41.8538 11.9338 41.3048 11.7222C40.7537 11.5103 40.1977 11.3199 39.6328 11.1502C39.0679 10.9805 38.4982 10.8322 37.9236 10.7054C37.3469 10.5782 36.7675 10.4729 36.1853 10.3893C35.6018 10.3066 35.016 10.2437 34.427 10.2046C33.8392 10.1647 33.2507 10.147 32.6614 10.1514C32.0722 10.1559 31.4835 10.1817 30.8948 10.2308C30.3074 10.2791 29.7225 10.3492 29.1411 10.4421C28.5588 10.5338 27.981 10.6475 27.4059 10.783C26.8328 10.9188 26.2646 11.0746 25.702 11.2537C25.1405 11.4319 24.5861 11.6305 24.0387 11.8495C23.4901 12.0693 22.9518 12.3089 22.4238 12.5685C21.8937 12.8277 21.3748 13.1079 20.8666 13.406C20.3571 13.705 19.8604 14.0221 19.3764 14.3574ZM49.7287 32.2357C49.8445 32.4165 49.9064 32.6134 49.9142 32.8282C49.922 33.0431 49.8757 33.2453 49.7734 33.4343L43.2158 47.4802C43.2036 47.4887 43.1818 47.5039 43.1753 47.523C43.1042 47.6793 43.0038 47.8146 42.8764 47.9291C42.7026 48.0472 42.5112 48.1144 42.3028 48.1339C42.2882 48.1441 42.2688 48.1577 42.2451 48.1598L26.8095 49.5138C26.5969 49.5453 26.3911 49.5197 26.1918 49.4388C25.9926 49.358 25.8288 49.2325 25.6985 49.0619L16.7933 36.3439C16.6796 36.1635 16.6188 35.9658 16.6099 35.7518C16.6021 35.5369 16.6483 35.3348 16.7487 35.1453C16.8458 34.9617 16.9811 34.8092 17.1519 34.6896C17.3228 34.57 17.5111 34.4959 17.7169 34.4674L32.5346 33.1596L38.7394 19.7292C38.8366 19.5456 38.9714 19.3952 39.1411 19.2764C39.3119 19.1567 39.4982 19.0823 39.704 19.0538C39.9175 19.0234 40.1221 19.05 40.3205 19.1296C40.5198 19.2104 40.6835 19.3359 40.815 19.5057L49.7287 32.2357Z" fill="#1D3557"/>
</svg>
