<svg width="200" height="75" viewBox="0 0 252 95" fill="none" xmlns="http://www.w3.org/2000/svg">
<path d="M152 14.0549L157.259 66.3577C170.824 65.5893 184.459 67.828 198.174 73.4005V22.003C181.39 15.7108 166.117 13.3617 152 14.0549Z" fill="#04345C"/>
<path d="M163.463 9.59068C174.701 10.3192 186.327 12.8406 198.174 17.1325V14.6377C186.786 6.28781 173.959 0.675586 162.968 0L163.463 9.59068Z" fill="#04345C"/>
<path d="M226.641 51.645C228.43 50.5631 230.355 50.0774 232.174 49.7242L233.379 49.4636C233.719 49.3886 234.068 49.3268 234.452 49.2649C233.75 46.6112 232.386 44.0457 230.417 41.754C228.553 39.586 226.045 38.12 223.4 36.5613C222.04 35.7665 220.649 34.9584 219.307 34.0135C214.384 30.5914 211.328 25.3545 210.564 19.1108C207.769 19.9498 204.921 20.9257 202.033 22.0119V73.4094C208.149 70.9146 214.247 69.1042 220.327 67.9253C220.362 67.7266 220.375 67.5411 220.406 67.3468C220.499 66.6138 220.574 65.8632 220.663 65.0993C220.972 62.1364 221.338 58.7761 222.879 55.725C223.736 54.047 225.038 52.6252 226.641 51.645Z" fill="#04345C"/>
<path d="M221.92 30.2557C223.126 31.0991 224.38 31.8321 225.709 32.6225C228.566 34.2872 231.533 36.0269 233.9 38.7778C236.593 41.9085 238.382 45.4807 239.141 49.1898C239.786 49.2649 240.426 49.3752 241.036 49.4812L241.451 49.5563C242.307 49.7108 243.393 49.9228 244.568 50.2716L248.206 14.0549C237.83 13.5515 226.808 14.6863 215.023 17.8258C215.513 23.0936 217.911 27.4783 221.92 30.2557Z" fill="#04345C"/>
<path d="M237.243 0C226.252 0.675586 213.421 6.28781 202.037 14.6377V17.1325C213.88 12.8406 225.511 10.3192 236.748 9.59068L237.243 0Z" fill="#04345C"/>
<path d="M240.502 68.9496C240.449 70.5525 239.164 71.5415 237.08 71.6475C235.336 71.7402 234.024 70.9278 233.984 69.3779C233.949 67.8192 233.94 66.2517 233.98 64.693C234.006 63.1519 234.077 61.6197 234.179 60.0919C234.276 58.5023 235.923 57.5309 237.698 57.6854C239.482 57.8355 240.4 58.7142 240.493 60.3966C240.502 60.4628 240.502 60.5423 240.502 60.6174C240.524 61.9553 240.511 63.302 240.511 64.6444C240.511 66.0839 240.542 67.5145 240.502 68.9496ZM251.042 67.753C250.569 64.2117 250.512 60.3568 248.865 57.107C247.28 53.9984 243.99 53.1329 240.811 52.5412C240.705 52.5147 240.599 52.5015 240.493 52.4794C238.974 52.2057 237.411 51.9893 235.874 52.1483C235.238 52.2145 234.611 52.3337 233.98 52.4662C233.583 52.5412 233.181 52.6295 232.783 52.7134C231.216 53.027 229.609 53.4288 228.231 54.2633C227.105 54.9522 226.209 55.9324 225.612 57.107C223.961 60.3568 223.908 64.2117 223.427 67.753C222.866 71.886 222.473 76.0455 222.473 80.2138C222.473 88.5063 229.061 94.5071 237.239 94.9795C245.412 94.5071 252 88.5063 252 80.2138C252 76.0455 251.611 71.886 251.042 67.753Z" fill="#04345C"/>
<path d="M5.5 55.8749C5.5 56.6405 5.21875 57.2812 4.66667 57.7916C4.10938 58.3072 3.46354 58.5624 2.72917 58.5624C1.9375 58.5624 1.28125 58.3072 0.770833 57.7916C0.255208 57.2812 0 56.6405 0 55.8749V30.4374C0 29.6874 0.260416 29.0572 0.791667 28.5416C1.31771 28.0312 2 27.7708 2.83333 27.7708C3.55208 27.7708 4.17708 28.0312 4.70833 28.5416C5.23438 29.0572 5.5 29.6874 5.5 30.4374V55.8749Z" fill="#04345C"/>
<path d="M24.2454 34.5833C27.2454 34.5833 29.3132 35.4739 30.4538 37.2499C31.5892 39.0312 32.1621 41.4791 32.1621 44.6041V55.8749C32.1621 56.6405 31.9121 57.2812 31.4121 57.7916C30.9225 58.3072 30.2975 58.5624 29.5371 58.5624C28.7715 58.5624 28.1413 58.3072 27.6413 57.7916C27.1413 57.2812 26.8913 56.6405 26.8913 55.8749V44.6041C26.8913 42.9947 26.5475 41.7291 25.8704 40.8124C25.2038 39.8853 24.0475 39.4166 22.4121 39.4166C20.7038 39.4166 19.36 39.9114 18.3913 40.8958C17.4329 41.8853 16.9538 43.1197 16.9538 44.6041V55.8749C16.9538 56.6405 16.7038 57.2812 16.2038 57.7916C15.7038 58.3072 15.0684 58.5624 14.3079 58.5624C13.5423 58.5624 12.9121 58.3072 12.4121 57.7916C11.9121 57.2812 11.6621 56.6405 11.6621 55.8749V37.7083C11.6621 36.9478 11.9121 36.3072 12.4121 35.7916C12.9121 35.2812 13.5423 35.0208 14.3079 35.0208C15.0684 35.0208 15.7038 35.2812 16.2038 35.7916C16.7038 36.3072 16.9538 36.9478 16.9538 37.7083V38.4583C17.7454 37.4062 18.7715 36.4947 20.0371 35.7291C21.3132 34.9687 22.7142 34.5833 24.2454 34.5833Z" fill="#04345C"/>
<path d="M49.1989 30.6667C48.1989 30.6667 47.4906 30.9531 47.0739 31.5208C46.6676 32.0938 46.4697 32.7188 46.4697 33.3958V35.4583H50.4697C51.1781 35.4583 51.7666 35.6875 52.2406 36.1458C52.7093 36.6042 52.9489 37.1823 52.9489 37.875C52.9489 38.5833 52.7093 39.1667 52.2406 39.625C51.7666 40.0833 51.1781 40.3125 50.4697 40.3125H46.4697V55.875C46.4697 56.6406 46.2197 57.2812 45.7197 57.7917C45.2197 58.3073 44.5843 58.5625 43.8239 58.5625C43.0583 58.5625 42.4281 58.3073 41.9281 57.7917C41.4385 57.2812 41.1989 56.6406 41.1989 55.875V40.3125H38.8239C38.1156 40.3125 37.5218 40.0833 37.0531 39.625C36.5791 39.1667 36.3447 38.5833 36.3447 37.875C36.3447 37.1823 36.5791 36.6042 37.0531 36.1458C37.5218 35.6875 38.1156 35.4583 38.8239 35.4583H41.1989V33.4375C41.1989 31.2448 41.9489 29.4583 43.4489 28.0833C44.9593 26.6979 47.1416 26 49.9906 26C51.0739 26 52.0166 26.224 52.8239 26.6667C53.626 27.099 54.0322 27.7708 54.0322 28.6875C54.0322 29.3958 53.8239 29.974 53.4072 30.4167C53.001 30.849 52.5114 31.0625 51.9281 31.0625C51.7718 31.0625 51.6156 31.0521 51.4489 31.0208C51.2926 30.9948 51.1364 30.9688 50.9697 30.9375C50.2614 30.7604 49.6676 30.6667 49.1989 30.6667Z" fill="#04345C"/>
<path d="M61.2135 55.8748C61.2135 56.6405 60.9635 57.2811 60.4635 57.7915C59.9635 58.3071 59.3281 58.5623 58.5677 58.5623C57.8021 58.5623 57.1719 58.3071 56.6719 57.7915C56.1719 57.2811 55.9219 56.6405 55.9219 55.8748V37.7082C55.9219 36.9478 56.1719 36.3071 56.6719 35.7915C57.1719 35.2811 57.8021 35.0207 58.5677 35.0207C59.3281 35.0207 59.9635 35.2811 60.4635 35.7915C60.9635 36.3071 61.2135 36.9478 61.2135 37.7082V55.8748ZM58.526 32.1665C57.526 32.1665 56.8177 32.0103 56.401 31.6873C55.9948 31.354 55.7969 30.7811 55.7969 29.9582V29.1248C55.7969 28.3071 56.0156 27.7394 56.4635 27.4165C56.9062 27.0832 57.6094 26.9165 58.5677 26.9165C59.5937 26.9165 60.3073 27.0832 60.7135 27.4165C61.1302 27.7394 61.3385 28.3071 61.3385 29.1248V29.9582C61.3385 30.8071 61.1198 31.3905 60.6927 31.7082C60.276 32.0155 59.5521 32.1665 58.526 32.1665Z" fill="#04345C"/>
<path d="M79.2015 34.5833C82.2015 34.5833 84.2692 35.4739 85.4098 37.2499C86.5452 39.0312 87.1182 41.4791 87.1182 44.6041V55.8749C87.1182 56.6405 86.8682 57.2812 86.3682 57.7916C85.8786 58.3072 85.2536 58.5624 84.4932 58.5624C83.7275 58.5624 83.0973 58.3072 82.5973 57.7916C82.0973 57.2812 81.8473 56.6405 81.8473 55.8749V44.6041C81.8473 42.9947 81.5036 41.7291 80.8265 40.8124C80.1598 39.8853 79.0036 39.4166 77.3682 39.4166C75.6598 39.4166 74.3161 39.9114 73.3473 40.8958C72.389 41.8853 71.9098 43.1197 71.9098 44.6041V55.8749C71.9098 56.6405 71.6598 57.2812 71.1598 57.7916C70.6598 58.3072 70.0244 58.5624 69.264 58.5624C68.4984 58.5624 67.8682 58.3072 67.3682 57.7916C66.8682 57.2812 66.6182 56.6405 66.6182 55.8749V37.7083C66.6182 36.9478 66.8682 36.3072 67.3682 35.7916C67.8682 35.2812 68.4984 35.0208 69.264 35.0208C70.0244 35.0208 70.6598 35.2812 71.1598 35.7916C71.6598 36.3072 71.9098 36.9478 71.9098 37.7083V38.4583C72.7015 37.4062 73.7275 36.4947 74.9932 35.7291C76.2692 34.9687 77.6702 34.5833 79.2015 34.5833Z" fill="#04345C"/>
<path d="M97.821 55.8748C97.821 56.6405 97.571 57.2811 97.071 57.7915C96.571 58.3071 95.9355 58.5623 95.1751 58.5623C94.4095 58.5623 93.7793 58.3071 93.2793 57.7915C92.7793 57.2811 92.5293 56.6405 92.5293 55.8748V37.7082C92.5293 36.9478 92.7793 36.3071 93.2793 35.7915C93.7793 35.2811 94.4095 35.0207 95.1751 35.0207C95.9355 35.0207 96.571 35.2811 97.071 35.7915C97.571 36.3071 97.821 36.9478 97.821 37.7082V55.8748ZM95.1335 32.1665C94.1335 32.1665 93.4251 32.0103 93.0085 31.6873C92.6022 31.354 92.4043 30.7811 92.4043 29.9582V29.1248C92.4043 28.3071 92.623 27.7394 93.071 27.4165C93.5137 27.0832 94.2168 26.9165 95.1751 26.9165C96.2012 26.9165 96.9147 27.0832 97.321 27.4165C97.7376 27.7394 97.946 28.3071 97.946 29.1248V29.9582C97.946 30.8071 97.7272 31.3905 97.3001 31.7082C96.8835 32.0155 96.1595 32.1665 95.1335 32.1665Z" fill="#04345C"/>
<path d="M114.581 53.5833C114.997 53.5833 115.372 53.7864 115.706 54.1874C116.039 54.578 116.206 55.0989 116.206 55.7499C116.206 56.5416 115.773 57.2083 114.914 57.7499C114.049 58.2916 113.081 58.5624 111.997 58.5624C110.174 58.5624 108.643 58.177 107.393 57.3958C106.143 56.6197 105.518 54.9687 105.518 52.4374V40.3124H103.497C102.789 40.3124 102.195 40.078 101.727 39.6041C101.268 39.1353 101.039 38.5416 101.039 37.8333C101.039 37.1666 101.268 36.6041 101.727 36.1458C102.195 35.6874 102.789 35.4583 103.497 35.4583H105.518V32.6458C105.518 31.8853 105.773 31.2447 106.289 30.7291C106.799 30.2187 107.44 29.9583 108.206 29.9583C108.94 29.9583 109.56 30.2187 110.06 30.7291C110.56 31.2447 110.81 31.8853 110.81 32.6458V35.4583H113.914C114.622 35.4583 115.211 35.6978 115.685 36.1666C116.154 36.6405 116.393 37.2239 116.393 37.9166C116.393 38.5989 116.154 39.1666 115.685 39.6249C115.211 40.0833 114.622 40.3124 113.914 40.3124H110.81V52.2291C110.81 52.8437 110.966 53.2864 111.289 53.5624C111.607 53.8437 112.044 53.9791 112.602 53.9791C112.836 53.9791 113.164 53.927 113.581 53.8124C113.924 53.6614 114.258 53.5833 114.581 53.5833Z" fill="#04345C"/>
<path d="M138.701 35.0208C139.461 35.0208 140.086 35.2812 140.576 35.7916C141.076 36.3072 141.326 36.9478 141.326 37.7083V56.4166C141.326 60.2187 140.295 62.9895 138.243 64.7291C136.201 66.4791 133.461 67.3541 130.034 67.3541C129.034 67.3541 128.013 67.2708 126.972 67.1041C125.93 66.9478 125.081 66.7395 124.43 66.4791C122.998 65.8645 122.284 65.0208 122.284 63.9374C122.284 63.7291 122.326 63.4895 122.409 63.2291C122.586 62.5728 122.888 62.0833 123.305 61.7499C123.732 61.4166 124.201 61.2499 124.701 61.2499C124.993 61.2499 125.269 61.2916 125.534 61.3749C125.743 61.4687 126.102 61.6145 126.618 61.8124C127.128 62.0208 127.67 62.1874 128.243 62.3124C128.81 62.4478 129.409 62.5208 130.034 62.5208C132.118 62.5208 133.644 62.0676 134.618 61.1666C135.602 60.276 136.097 58.7499 136.097 56.5833V56.1458C134.565 58.052 132.19 58.9999 128.972 58.9999C127.44 58.9999 126.086 58.6458 124.909 57.9374C123.743 57.2187 122.831 56.2187 122.18 54.9374C121.539 53.6614 121.222 52.203 121.222 50.5624V37.7083C121.222 36.9478 121.472 36.3072 121.972 35.7916C122.472 35.2812 123.102 35.0208 123.868 35.0208C124.628 35.0208 125.263 35.2812 125.763 35.7916C126.263 36.3072 126.513 36.9478 126.513 37.7083V48.9791C126.513 50.828 126.914 52.1562 127.722 52.9583C128.524 53.7655 129.706 54.1666 131.263 54.1666C132.789 54.1666 133.972 53.7239 134.805 52.8333C135.638 51.9322 136.055 50.6458 136.055 48.9791V37.7083C136.055 36.9478 136.305 36.3072 136.805 35.7916C137.305 35.2812 137.935 35.0208 138.701 35.0208Z" fill="#04345C"/>
</svg>
