<svg width="230" height="72.11" viewBox="0 0 300 95" fill="none" xmlns="http://www.w3.org/2000/svg">
<path d="M3.20986 88.7079H3.88978C5.96643 88.7079 7.09963 87.5747 7.09963 85.498V65.7382C7.09963 63.6615 5.96643 62.5283 3.88978 62.5283H3.20986C1.1332 62.5283 0 63.6615 0 65.7382V85.498C0 87.5747 1.1332 88.7079 3.20986 88.7079Z" fill="#597DA8"/>
<path d="M35.774 62.5283C33.7711 62.5283 32.7486 63.6984 32.9014 65.8541C33.165 69.4013 33.3547 73.0697 33.4654 77.1861H33.3916L27.499 64.9107C26.7084 63.2451 25.533 62.5283 23.7199 62.5283H21.7961C19.7194 62.5283 18.5862 63.6615 18.6231 65.7382C18.66 72.3529 18.66 78.8833 18.6231 85.498C18.5862 87.5747 19.6773 88.7079 21.6432 88.7079C23.6092 88.7079 24.6264 87.5378 24.5158 85.3821C24.2101 80.8493 24.0256 76.5431 23.9096 71.1775H23.9834L31.2781 86.3255C32.0687 87.9911 33.2388 88.7079 35.0572 88.7079H35.6211C37.6978 88.7079 38.831 87.5747 38.7941 85.498C38.7572 78.8833 38.7572 72.3529 38.7941 65.7382C38.831 63.6615 37.7768 62.5283 35.774 62.5283Z" fill="#597DA8"/>
<path d="M67.1634 65.248C67.1634 63.4718 66.0302 62.5283 63.9535 62.5283H53.5281C51.4514 62.5283 50.3182 63.6615 50.3551 65.7382C50.3551 69.0271 50.392 72.3107 50.392 75.5997C50.392 78.8833 50.3551 82.1722 50.3551 85.498C50.3182 87.5747 51.4514 88.7079 53.5281 88.7079H54.208C56.2846 88.7079 57.4178 87.5747 57.3809 85.498C57.3809 83.1947 57.3809 80.9283 57.3809 78.6567C59.1203 78.6988 60.8543 78.6988 62.5199 78.7357C64.5965 78.7357 65.7297 77.8292 65.7297 76.1636C65.7297 74.5402 64.5965 73.6337 62.5199 73.6337C60.8543 73.6706 59.1203 73.6706 57.3809 73.7127V67.9308C59.6104 67.9677 61.9137 67.9677 63.9535 68.0046C66.0302 68.0046 67.1634 67.0242 67.1634 65.248Z" fill="#597DA8"/>
<path d="M80.5759 88.7079H81.2558C83.3324 88.7079 84.4656 87.5747 84.4656 85.498V65.7382C84.4656 63.6615 83.3324 62.5283 81.2558 62.5283H80.5759C78.4992 62.5283 77.366 63.6615 77.366 65.7382V85.498C77.366 87.5747 78.4992 88.7079 80.5759 88.7079Z" fill="#597DA8"/>
<path d="M113.14 62.5283C111.137 62.5283 110.115 63.6984 110.267 65.8541C110.531 69.4013 110.721 73.0697 110.831 77.1861H110.758L104.865 64.9107C104.074 63.2451 102.899 62.5283 101.086 62.5283H99.1621C97.0854 62.5283 95.9522 63.6615 95.9891 65.7382C96.026 72.3529 96.026 78.8833 95.9891 85.498C95.9522 87.5747 97.0433 88.7079 99.0092 88.7079C100.975 88.7079 101.992 87.5378 101.882 85.3821C101.576 80.8493 101.392 76.5431 101.276 71.1775H101.349L108.644 86.3255C109.435 87.9911 110.605 88.7079 112.423 88.7079H112.987C115.064 88.7079 116.197 87.5747 116.16 85.498C116.123 78.8833 116.123 72.3529 116.16 65.7382C116.197 63.6615 115.143 62.5283 113.14 62.5283Z" fill="#597DA8"/>
<path d="M130.894 88.7079H131.574C133.651 88.7079 134.784 87.5747 134.784 85.498V65.7382C134.784 63.6615 133.651 62.5283 131.574 62.5283H130.894C128.817 62.5283 127.684 63.6615 127.684 65.7382V85.498C127.684 87.5747 128.817 88.7079 130.894 88.7079Z" fill="#597DA8"/>
<path d="M164.628 65.0583C164.628 63.398 163.495 62.5283 161.418 62.5283H147.588C145.511 62.5283 144.378 63.4349 144.378 65.0583C144.378 66.6816 145.511 67.6304 147.63 67.6304C148.763 67.5882 149.854 67.5882 150.914 67.5882C150.914 70.2341 150.951 72.9169 150.951 75.5997C150.951 78.9255 150.914 82.2091 150.877 85.498C150.877 87.5747 152.01 88.7079 154.087 88.7079H154.767C156.843 88.7079 157.977 87.5747 157.94 85.498C157.94 82.1722 157.94 78.9255 157.94 75.5997V67.5882C159.073 67.5882 160.169 67.5882 161.376 67.6304C163.495 67.6304 164.628 66.6816 164.628 65.0583Z" fill="#597DA8"/>
<path d="M187.37 65.9286C187.143 72.5802 186.084 75.8639 184.234 75.8639C181.588 75.8639 181.214 72.0479 180.797 65.8179C180.681 63.6622 179.548 62.5659 177.508 62.5659H175.885C173.729 62.5659 172.638 63.7782 172.865 65.8917C173.729 72.6171 175.469 78.4307 179.849 80.5864C179.775 82.3996 179.701 83.9491 179.664 85.4987C179.622 87.5754 180.76 88.7086 182.837 88.7086H183.517C185.594 88.7086 186.727 87.5754 186.69 85.4987C186.653 83.9122 186.611 82.3258 186.537 80.4758C191.149 78.3569 192.772 72.3536 193.526 65.8917C193.79 63.7782 192.693 62.5659 190.58 62.5659C188.503 62.5659 187.444 63.736 187.37 65.9286Z" fill="#597DA8"/>
<path d="M300 46.6565C300 44.9382 299.905 43.22 299.715 41.507C299.526 39.794 299.241 38.0968 298.862 36.4155C298.482 34.7341 298.013 33.0791 297.454 31.4505C296.89 29.8166 296.242 28.2248 295.509 26.67C294.771 25.1098 293.949 23.6024 293.048 22.1319C292.141 20.6666 291.161 19.2541 290.102 17.8995C289.042 16.5449 287.909 15.2484 286.707 14.015C285.506 12.7869 284.241 11.6274 282.907 10.5363C281.579 9.44531 280.193 8.42807 278.749 7.49515C277.304 6.55697 275.818 5.70312 274.279 4.93359C272.745 4.1588 271.169 3.47888 269.556 2.87802C267.944 2.28243 266.304 1.78171 264.634 1.36533C262.968 0.948945 261.281 0.632704 259.579 0.406063C257.877 0.179423 256.164 0.047656 254.445 0.0107607C252.727 -0.0261332 251.014 0.0318425 249.301 0.184694C247.588 0.337544 245.891 0.585266 244.204 0.927862C242.523 1.27046 240.863 1.70266 239.224 2.22973C237.59 2.7568 235.987 3.37347 234.417 4.07974C232.851 4.78074 231.328 5.57135 229.847 6.44628C228.366 7.32122 226.932 8.27522 225.557 9.30827C224.181 10.3361 222.869 11.4429 221.614 12.6235C220.36 13.8042 219.174 15.0481 218.062 16.3552C216.944 17.6676 215.901 19.0327 214.936 20.4611C213.972 21.8894 213.086 23.36 212.285 24.8885C211.484 26.4117 210.767 27.9718 210.14 29.5794C209.507 31.1817 208.97 32.8156 208.522 34.4759C208.068 36.1414 207.715 37.8228 207.452 39.5305C207.188 41.2329 207.02 42.9459 206.946 44.6641C206.872 46.3876 206.893 48.1059 207.009 49.8294C207.125 51.5477 207.331 53.2554 207.636 54.9525C207.942 56.6497 208.337 58.3205 208.827 59.9755C209.318 61.6252 209.897 63.2486 210.561 64.8351C210.988 65.8365 211.447 66.8221 211.932 67.7814L211.31 89.3597C211.299 89.6548 211.352 89.9289 211.463 90.1977C211.579 90.4665 211.737 90.6984 211.953 90.8987C212.164 91.0937 212.406 91.2413 212.68 91.3362C212.954 91.4258 213.234 91.4574 213.524 91.431L234.522 89.3175C234.791 89.4334 235.06 89.5547 235.329 89.6706C238.707 91.1043 242.207 92.1215 245.828 92.7224C249.443 93.3232 253.085 93.4972 256.743 93.2389C260.406 92.9754 263.985 92.2902 267.48 91.1833C270.98 90.0712 274.3 88.5691 277.447 86.6716C277.879 87.7626 278.459 88.7641 279.191 89.6812C279.924 90.593 280.778 91.3783 281.742 92.0372C282.712 92.696 283.756 93.1967 284.873 93.5393C285.99 93.8872 287.134 94.0558 288.304 94.0558C289.074 94.0558 289.833 93.9821 290.587 93.8345C291.34 93.6816 292.073 93.4603 292.779 93.1651C293.491 92.8699 294.165 92.5115 294.803 92.0793C295.441 91.6524 296.031 91.1675 296.574 90.6246C297.117 90.0817 297.602 89.4862 298.029 88.8484C298.45 88.2054 298.814 87.5307 299.104 86.8192C299.399 86.1076 299.62 85.375 299.773 84.6213C299.921 83.8676 299.995 83.1033 299.995 82.3338V47.6157C299.995 47.2942 300 46.978 300 46.6565ZM253.449 69.9424C240.652 69.9424 230.237 59.4959 230.237 46.6565C230.237 33.8223 240.652 23.3758 253.449 23.3758C266.252 23.3758 276.667 33.8223 276.667 46.6565C276.667 59.4959 266.252 69.9424 253.449 69.9424Z" fill="#597DA8"/>
</svg>
