<svg width="60" height="56" viewBox="0 0 72 68" fill="none" xmlns="http://www.w3.org/2000/svg">
<path d="M0 10.0393L3.75641 47.3984C13.4455 46.8496 23.185 48.4486 32.9813 52.429V15.7165C20.993 11.222 10.0833 9.54409 0 10.0393Z" fill="#F8F8FF"/>
<path d="M8.18772 6.85048C16.2146 7.37089 24.5191 9.17182 32.9813 12.2375V10.4555C24.8471 4.49129 15.6848 0.482561 7.83447 0L8.18772 6.85048Z" fill="#F8F8FF"/>
<path d="M53.3151 36.889C54.5925 36.1163 55.9677 35.7694 57.2671 35.5171L58.1281 35.331C58.371 35.2774 58.6202 35.2332 58.8946 35.189C58.3931 33.2935 57.4185 31.461 56.0118 29.8241C54.6808 28.2755 52.8894 27.2283 51.0001 26.115C50.0287 25.5473 49.0352 24.9701 48.0764 24.2951C44.5596 21.8508 42.3771 18.1101 41.8314 13.6504C39.835 14.2497 37.8006 14.9467 35.7379 15.7226V52.4351C40.1062 50.6531 44.4619 49.36 48.8049 48.5178C48.8302 48.3759 48.8396 48.2434 48.8617 48.1047C48.9279 47.5811 48.9815 47.0449 49.0446 46.4993C49.2654 44.3829 49.5272 41.9827 50.6279 39.8033C51.2398 38.6048 52.1702 37.5892 53.3151 36.889Z" fill="#F8F8FF"/>
<path d="M49.9431 21.6115C50.8042 22.2139 51.6999 22.7374 52.6493 23.302C54.6899 24.4911 56.8094 25.7337 58.4999 27.6987C60.4239 29.9349 61.7012 32.4865 62.2437 35.1358C62.7042 35.1894 63.1615 35.2683 63.5968 35.344L63.8933 35.3976C64.5052 35.508 65.281 35.6594 66.12 35.9085L68.7189 10.0395C61.307 9.6799 53.4346 10.4905 45.0166 12.733C45.3667 16.4957 47.0793 19.6276 49.9431 21.6115Z" fill="#F8F8FF"/>
<path d="M60.8878 0C53.0375 0.482561 43.872 4.49129 35.741 10.4555V12.2375C44.2 9.17182 52.5076 7.37089 60.5345 6.85048L60.8878 0Z" fill="#F8F8FF"/>
<path d="M63.2155 49.2497C63.1777 50.3946 62.2599 51.1011 60.7712 51.1768C59.5254 51.2431 58.5886 50.6627 58.5602 49.5557C58.535 48.4423 58.5287 47.3227 58.5571 46.2093C58.576 45.1085 58.6265 44.0141 58.699 42.9228C58.7684 41.7874 59.9448 41.0935 61.2128 41.2039C62.487 41.3111 63.143 41.9388 63.2092 43.1405C63.2155 43.1878 63.2155 43.2445 63.2155 43.2982C63.2313 44.2538 63.2218 45.2158 63.2218 46.1746C63.2218 47.2028 63.2439 48.2247 63.2155 49.2497ZM70.7441 48.395C70.4067 45.8655 70.3657 43.1121 69.1892 40.7907C68.0569 38.5703 65.7072 37.9521 63.4363 37.5295C63.3606 37.5106 63.2849 37.5011 63.2092 37.4853C62.1243 37.2898 61.0077 37.1352 59.9101 37.2488C59.456 37.2961 59.0081 37.3813 58.5571 37.4759C58.2732 37.5295 57.9862 37.5926 57.7024 37.6525C56.5827 37.8764 55.4346 38.1634 54.4506 38.7595C53.6463 39.2516 53.0061 39.9518 52.5803 40.7907C51.4007 43.1121 51.3628 45.8655 51.019 48.395C50.6185 51.3472 50.3378 54.3182 50.3378 57.2956C50.3378 63.2188 55.0435 67.5051 60.8847 67.8426C66.7228 67.5051 71.4285 63.2188 71.4285 57.2956C71.4285 54.3182 71.151 51.3472 70.7441 48.395Z" fill="#F8F8FF"/>
</svg>
