<svg width="350" height="350" viewBox="0 0 813 748" fill="none" xmlns="http://www.w3.org/2000/svg">
<path d="M64.0038 77.1892C68.9474 77.1892 72.9549 73.4077 72.9549 68.743C72.9549 64.0784 68.9474 60.2969 64.0038 60.2969C59.0603 60.2969 55.0527 64.0784 55.0527 68.743C55.0527 73.4077 59.0603 77.1892 64.0038 77.1892Z" fill="#9AB3DA"/>
<path d="M328.735 106.668C333.904 106.668 338.095 102.714 338.095 97.8355C338.095 92.9574 333.904 89.0029 328.735 89.0029C323.565 89.0029 319.374 92.9574 319.374 97.8355C319.374 102.714 323.565 106.668 328.735 106.668Z" fill="#9AB3DA"/>
<path d="M435.467 63.4193L509.461 7.2666L438.546 24.8566L435.467 63.4193Z" fill="#E26A6A"/>
<path d="M509.463 7.2666L405.806 11.1003L435.469 21.4022L509.463 7.2666Z" fill="#ECBDBB"/>
<path d="M509.464 7.2666L441.455 26.2581H441.455L455.756 63.4193L509.464 7.2666Z" fill="#ECBDBB"/>
<path d="M435.467 21.4022V63.4193L441.452 26.2581L509.461 7.2666L435.467 21.4022Z" fill="#F68D88"/>
<path d="M598.919 1V9.69446" stroke="#6B81BE" stroke-width="2" stroke-miterlimit="10" stroke-linecap="round" stroke-linejoin="round"/>
<path d="M598.919 18.9751V27.6696" stroke="#6B81BE" stroke-width="2" stroke-miterlimit="10" stroke-linecap="round" stroke-linejoin="round"/>
<path d="M613.054 14.3354H603.84" stroke="#6B81BE" stroke-width="2" stroke-miterlimit="10" stroke-linecap="round" stroke-linejoin="round"/>
<path d="M594.001 14.3354H584.787" stroke="#6B81BE" stroke-width="2" stroke-miterlimit="10" stroke-linecap="round" stroke-linejoin="round"/>
<path d="M164.66 60.2969V68.9913" stroke="#6B81BE" stroke-width="2" stroke-miterlimit="10" stroke-linecap="round" stroke-linejoin="round"/>
<path d="M164.66 78.272V86.9664" stroke="#6B81BE" stroke-width="2" stroke-miterlimit="10" stroke-linecap="round" stroke-linejoin="round"/>
<path d="M178.793 73.6318H169.579" stroke="#6B81BE" stroke-width="2" stroke-miterlimit="10" stroke-linecap="round" stroke-linejoin="round"/>
<path d="M159.743 73.6318H150.528" stroke="#6B81BE" stroke-width="2" stroke-miterlimit="10" stroke-linecap="round" stroke-linejoin="round"/>
<path d="M261.555 728.27C291.814 722.113 248.81 628.06 230.708 607.744C212.607 587.428 209.488 612.43 209.488 612.43C209.488 612.43 158.312 539.559 129.675 530.142C101.037 520.724 115.871 548.933 115.871 548.933C115.871 548.933 42.0297 494.429 7.41409 516.92C-27.2015 539.411 70.6293 583.995 70.6293 583.995C70.6293 583.995 40.3582 578.523 33.8243 594.308C27.2903 610.093 145.435 653.636 145.435 653.636C145.435 653.636 117.394 652.966 111.269 667.764C105.143 682.563 214.842 737.774 261.555 728.27Z" fill="#404B7C"/>
<path d="M25.4629 531.575C25.4629 531.575 158.162 592.443 259.031 715.078" stroke="#9AB3DA" stroke-width="2" stroke-miterlimit="10" stroke-linecap="round" stroke-linejoin="round"/>
<path d="M82.1309 604.182C82.1309 604.182 131.081 614.926 168.065 624.617C168.065 624.617 150.249 578.627 133.338 553.973" stroke="#9AB3DA" stroke-width="2" stroke-miterlimit="10" stroke-linecap="round" stroke-linejoin="round"/>
<path d="M171.544 679.949L243.629 697.087C243.629 697.087 237.934 653.854 227.167 628.762" stroke="#9AB3DA" stroke-width="2" stroke-miterlimit="10" stroke-linecap="round" stroke-linejoin="round"/>
<path d="M311.167 725.296C342.079 726.829 326.671 625.432 314.838 601.353C303.005 577.274 293.057 600.634 293.057 600.634C293.057 600.634 263.886 517.662 238.86 501.498C213.834 485.335 220.324 516.224 220.324 516.224C220.324 516.224 164.181 445.379 124.533 458.534C84.884 471.689 166.932 538.886 166.932 538.886C166.932 538.886 139.235 526.128 128.549 539.748C117.863 553.368 219.806 624.578 219.806 624.578C219.806 624.578 192.929 617.005 182.911 629.774C172.893 642.542 263.447 722.929 311.167 725.296Z" fill="#9AB3DA"/>
<path d="M137.887 477.136C137.887 477.136 249.068 568.663 312.392 711.939" stroke="#404B7C" stroke-width="2" stroke-miterlimit="10" stroke-linecap="round" stroke-linejoin="round"/>
<path d="M172.432 561.21C172.432 561.21 216.694 583.671 249.699 602.161C249.699 602.161 245.264 553.374 235.784 525.402" stroke="#404B7C" stroke-width="2" stroke-miterlimit="10" stroke-linecap="round" stroke-linejoin="round"/>
<path d="M237.703 656.423L302.519 690.771C302.519 690.771 309.018 647.64 305.589 620.762" stroke="#404B7C" stroke-width="2" stroke-miterlimit="10" stroke-linecap="round" stroke-linejoin="round"/>
<path d="M550.943 728.27C520.684 722.114 563.689 628.06 581.79 607.744C599.891 587.428 603.011 612.431 603.011 612.431C603.011 612.431 654.186 539.56 682.824 530.142C711.462 520.725 696.627 548.933 696.627 548.933C696.627 548.933 770.469 494.429 805.084 516.92C839.7 539.411 741.869 583.995 741.869 583.995C741.869 583.995 772.14 578.524 778.674 594.309C785.208 610.093 667.063 653.636 667.063 653.636C667.063 653.636 695.104 652.966 701.23 667.765C707.355 682.563 597.656 737.775 550.943 728.27Z" fill="#404B7C"/>
<path d="M787.037 531.575C787.037 531.575 654.338 592.443 553.469 715.078" stroke="#9AB3DA" stroke-width="2" stroke-miterlimit="10" stroke-linecap="round" stroke-linejoin="round"/>
<path d="M730.369 604.182C730.369 604.182 681.419 614.926 644.435 624.617C644.435 624.617 662.251 578.627 679.162 553.973" stroke="#9AB3DA" stroke-width="2" stroke-miterlimit="10" stroke-linecap="round" stroke-linejoin="round"/>
<path d="M640.955 679.949L568.87 697.087C568.87 697.087 574.565 653.854 585.332 628.762" stroke="#9AB3DA" stroke-width="2" stroke-miterlimit="10" stroke-linecap="round" stroke-linejoin="round"/>
<path d="M501.332 725.296C470.42 726.829 485.828 625.432 497.661 601.353C509.494 577.274 519.442 600.634 519.442 600.634C519.442 600.634 548.613 517.662 573.639 501.498C598.665 485.335 592.175 516.224 592.175 516.224C592.175 516.224 648.318 445.379 687.966 458.534C727.615 471.689 645.567 538.886 645.567 538.886C645.567 538.886 673.264 526.128 683.95 539.748C694.636 553.368 592.693 624.578 592.693 624.578C592.693 624.578 619.571 617.005 629.588 629.774C639.606 642.542 549.053 722.929 501.332 725.296Z" fill="#9AB3DA"/>
<path d="M674.612 477.137C674.612 477.137 563.431 568.664 500.106 711.94" stroke="#404B7C" stroke-width="2" stroke-miterlimit="10" stroke-linecap="round" stroke-linejoin="round"/>
<path d="M640.068 561.211C640.068 561.211 595.806 583.673 562.801 602.162C562.801 602.162 567.235 553.375 576.716 525.404" stroke="#404B7C" stroke-width="2" stroke-miterlimit="10" stroke-linecap="round" stroke-linejoin="round"/>
<path d="M574.795 656.423L509.979 690.771C509.979 690.771 503.48 647.64 506.909 620.762" stroke="#404B7C" stroke-width="2" stroke-miterlimit="10" stroke-linecap="round" stroke-linejoin="round"/>
<path d="M455.276 542.576H350.123L340.084 676.522H465.315L455.276 542.576ZM385.296 636.775L389.368 582.322H416.031L420.117 636.775H385.296Z" fill="#9AB3DA"/>
<path d="M526.844 656.942C524.007 664.851 520.357 672.483 515.625 679.743C513.729 682.671 510.303 684.42 506.667 684.42H298.734C295.098 684.42 291.672 682.671 289.776 679.743C285.044 672.483 281.394 664.851 278.557 656.942C277.603 654.266 279.751 651.497 282.742 651.497H522.659C525.65 651.497 527.798 654.266 526.844 656.942Z" fill="#404B7C"/>
<path d="M739.681 567.601H65.716C57.0045 567.601 49.9424 560.937 49.9424 552.717V140.028C49.9424 131.808 57.0045 125.145 65.716 125.145H739.681C748.393 125.145 755.455 131.808 755.455 140.028V552.717C755.455 560.937 748.393 567.601 739.681 567.601Z" fill="#6B81BE"/>
<path d="M65.7178 553.027C65.5361 553.027 65.3887 552.889 65.3887 552.718V140.029C65.3887 139.858 65.5361 139.719 65.7178 139.719H739.683C739.864 139.719 740.012 139.858 740.012 140.029V552.718C740.012 552.889 739.864 553.027 739.683 553.027H65.7178Z" fill="white"/>
<path d="M740.01 684.42H65.3867V747.561H740.01V684.42Z" fill="#6B81BE"/>
<path d="M343.202 684.42C324.316 686.808 304.72 690.097 284.38 694.283C211.01 709.38 161.656 702.579 133.172 694.217C122.779 691.165 114.342 687.69 107.712 684.42H93.2031C100.871 689.148 112.868 695.223 129.867 700.276C159.46 709.072 210.621 716.29 286.316 700.711C427.462 671.664 531.872 686.496 611.145 747.561H622.745C581.65 714.104 533.917 693.163 477.933 684.42H343.202Z" fill="#9AB3DA"/>
<path d="M423.196 716.323C386.532 711.673 349.805 718.451 310.925 725.626C258.6 735.28 204.492 745.265 146.48 727.319C114.063 717.292 86.946 714.681 65.3867 715.519V722.342C86.1075 721.443 112.333 723.83 143.67 733.525C203.913 752.156 259.203 741.958 312.671 732.091C350.796 725.055 386.807 718.414 421.981 722.87C448.142 726.187 468.514 735.885 484.143 747.56H495.862C475.531 730.526 450.815 719.825 423.196 716.323Z" fill="#9AB3DA"/>
<path d="M687.041 747.561H699.777C688.195 739.538 672.161 729.418 651.938 718.987C629.791 707.562 600.198 694.655 564.47 684.42H537.612C583.547 694.994 620.938 710.825 647.457 724.484C663.243 732.616 676.509 740.629 687.041 747.561Z" fill="#9AB3DA"/>
<path d="M740.009 735.66V726.128C717.894 708.083 691.123 694.559 663.533 684.42H642.122C677.299 695.453 712.961 711.707 740.009 735.66Z" fill="#9AB3DA"/>
<path d="M363.982 239.48H109.453C102.325 239.48 96.5469 234.028 96.5469 227.302V172.502C96.5469 165.777 102.325 160.325 109.453 160.325H363.982C371.11 160.325 376.888 165.777 376.888 172.502V227.302C376.888 234.028 371.11 239.48 363.982 239.48Z" fill="#6B81BE"/>
<path d="M700.247 515.508H415.612C408.484 515.508 402.706 510.056 402.706 503.33V172.502C402.706 165.777 408.484 160.325 415.612 160.325H700.247C707.375 160.325 713.153 165.777 713.153 172.502V503.33C713.153 510.056 707.375 515.508 700.247 515.508Z" fill="#6B81BE"/>
<path d="M219.868 407.939H109.453C102.325 407.939 96.5469 402.487 96.5469 395.762V291.575C96.5469 284.849 102.325 279.397 109.453 279.397H219.868C226.996 279.397 232.774 284.849 232.774 291.575V395.762C232.774 402.487 226.996 407.939 219.868 407.939Z" fill="#F68D88"/>
<path d="M221.516 309.39V311.363C220.084 311.47 218.878 311.843 217.899 312.483C216.919 313.123 216.052 314.1 215.299 315.416C215.073 315.843 213.886 318.598 211.738 323.682L187.718 383.358H185.514L166.524 336.748L145.612 383.358H143.521L118.314 324.322C115.752 318.385 113.962 314.794 112.945 313.549C111.928 312.305 110.213 311.576 107.802 311.363V309.39H141.034V311.363C138.359 311.434 136.579 311.816 135.693 312.509C134.808 313.203 134.365 314.065 134.365 315.096C134.365 316.447 135.288 319.309 137.135 323.682L152.168 358.773L164.207 331.361L161.042 323.682C159.308 319.487 157.971 316.687 157.029 315.283C156.087 313.878 155.004 312.874 153.779 312.269C152.555 311.665 150.755 311.363 148.382 311.363V309.39H185.514V311.363C182.914 311.398 181.049 311.594 179.919 311.949C179.127 312.198 178.506 312.616 178.053 313.203C177.601 313.789 177.375 314.456 177.375 315.203C177.375 316.02 178.223 318.527 179.919 322.722L193.878 356.96L206.369 325.975C207.688 322.775 208.498 320.589 208.799 319.416C209.101 318.242 209.251 317.158 209.251 316.163C209.251 314.705 208.724 313.558 207.669 312.723C206.614 311.887 204.598 311.434 201.621 311.363V309.39H221.516Z" fill="white"/>
<path d="M363.982 303.752H273.642C266.514 303.752 260.736 298.3 260.736 291.575V291.575C260.736 284.849 266.514 279.397 273.642 279.397H363.982C371.11 279.397 376.888 284.849 376.888 291.575V291.575C376.888 298.3 371.11 303.752 363.982 303.752Z" fill="#9AB3DA"/>
<path d="M363.982 355.846H273.642C266.514 355.846 260.736 350.394 260.736 343.668V343.668C260.736 336.942 266.514 331.49 273.642 331.49H363.982C371.11 331.49 376.888 336.942 376.888 343.668V343.668C376.888 350.394 371.11 355.846 363.982 355.846Z" fill="#9AB3DA"/>
<path d="M363.982 407.939H273.642C266.514 407.939 260.736 402.487 260.736 395.762V395.762C260.736 389.036 266.514 383.584 273.642 383.584H363.982C371.11 383.584 376.888 389.036 376.888 395.762V395.762C376.888 402.487 371.11 407.939 363.982 407.939Z" fill="#9AB3DA"/>
<path d="M363.982 463.414H109.453C102.325 463.414 96.5469 457.962 96.5469 451.236C96.5469 444.511 102.325 439.059 109.453 439.059H363.982C371.11 439.059 376.888 444.511 376.888 451.236C376.888 457.962 371.11 463.414 363.982 463.414Z" fill="#6B81BE"/>
<path d="M363.982 515.509H109.453C102.325 515.509 96.5469 510.057 96.5469 503.331V503.331C96.5469 496.605 102.325 491.153 109.453 491.153H363.982C371.11 491.153 376.888 496.605 376.888 503.331V503.331C376.888 510.057 371.11 515.509 363.982 515.509Z" fill="#6B81BE"/>
<path d="M769.077 285.515C771.21 285.515 772.938 283.884 772.938 281.872C772.938 279.86 771.21 278.229 769.077 278.229C766.945 278.229 765.216 279.86 765.216 281.872C765.216 283.884 766.945 285.515 769.077 285.515Z" fill="#9AB3DA"/>
<path d="M787.038 452.84C791.303 452.84 794.76 449.578 794.76 445.553C794.76 441.529 791.303 438.267 787.038 438.267C782.773 438.267 779.315 441.529 779.315 445.553C779.315 449.578 782.773 452.84 787.038 452.84Z" fill="#9AB3DA"/>
<path d="M164.661 309.529C164.661 309.529 105.323 201.664 180.793 148.245C272.687 83.1999 352.511 188.807 265.039 212.11C164.42 238.916 93.7417 23.6645 420.118 35.8422" stroke="#9AB3DA" stroke-width="2" stroke-miterlimit="10" stroke-linecap="round" stroke-linejoin="round" stroke-dasharray="6 6"/>
<path d="M779.316 202.236V210.93" stroke="#6B81BE" stroke-width="2" stroke-miterlimit="10" stroke-linecap="round" stroke-linejoin="round"/>
<path d="M779.316 220.211V228.906" stroke="#6B81BE" stroke-width="2" stroke-miterlimit="10" stroke-linecap="round" stroke-linejoin="round"/>
<path d="M793.451 215.57H784.236" stroke="#6B81BE" stroke-width="2" stroke-miterlimit="10" stroke-linecap="round" stroke-linejoin="round"/>
<path d="M774.402 215.57H765.188" stroke="#6B81BE" stroke-width="2" stroke-miterlimit="10" stroke-linecap="round" stroke-linejoin="round"/>
<path d="M514.911 110.496C514.911 110.496 515.087 110.172 515.461 109.612C518.099 105.651 530.599 89.8691 560.646 92.8657C594.948 96.2865 608.333 135.758 597.736 152.072C587.139 168.387 606.939 175.755 627.576 183.913C648.212 192.07 664.666 218.647 645.145 242.593C625.624 266.539 526.066 272.065 519.652 243.646C513.238 215.226 533.596 192.333 531.086 169.44L514.911 110.496Z" fill="#404B7C"/>
<path d="M534.956 173.397L538.146 188.806L541.381 204.427L558.671 202.321L555.682 172.471L554.767 163.376L534.956 173.397Z" fill="#ECBDBB"/>
<path d="M534.956 173.397L538.146 188.806C548.476 187.543 553.362 179.544 555.682 172.471L554.767 163.376L534.956 173.397Z" fill="#404B7C"/>
<path d="M403.22 287.538L392.346 267.884C392.346 267.884 389.895 237.68 387.955 233.633C386.015 229.587 366.513 222.168 361.919 222.168C357.324 222.168 337.617 228.045 335.167 234.018C332.716 239.992 343.846 238.258 343.846 238.258C343.846 238.258 334.35 244.616 336.392 248.663C338.434 252.709 349.768 248.952 349.768 248.952C349.768 248.952 338.741 253.866 340.885 258.105C343.029 262.344 352.219 258.876 352.219 258.876C352.219 258.876 348.645 265.234 351.708 267.643C354.771 270.052 360.183 266.776 360.183 266.776L373.558 274.773L382.544 300.593L403.22 287.538Z" fill="#ECBDBB"/>
<path d="M311.39 219.569L308.141 228.601L382.592 252.451L385.842 243.419L311.39 219.569Z" fill="#9AB3DA"/>
<path d="M311.39 219.57L308.14 228.602L295.169 219.41L311.39 219.57Z" fill="#9AB3DA"/>
<path d="M349.052 238.452C340.963 240.43 355.28 263.983 361.611 269.571C367.941 275.159 379.173 274.87 379.173 274.87C379.173 274.87 387.341 267.741 384.38 258.299C381.419 248.857 366.512 251.169 366.512 251.169C366.512 251.169 354.566 237.103 349.052 238.452Z" fill="#ECBDBB"/>
<path d="M514.548 342.539C480.134 396.661 450.971 428.458 426.118 408.611C409.48 395.323 390.047 351.919 379.025 324.68C373.591 311.232 370.193 301.719 370.193 301.719C387.169 281.647 406.756 281.872 406.756 281.872L422.075 296.897L437.351 311.868C437.351 311.868 467.708 239.635 499.258 231.142C542.757 219.404 548.963 288.417 514.548 342.539Z" fill="#F68D88"/>
<path d="M437.115 313.223L452.411 373.886" stroke="#ECBDBB" stroke-width="2" stroke-miterlimit="10" stroke-linecap="round" stroke-linejoin="round"/>
<path d="M418.803 293.689C391.536 297.452 380.935 311.27 376.975 319.525C372.749 308.859 370.193 301.718 370.193 301.718C387.169 281.646 406.756 281.871 406.756 281.871L418.803 293.689Z" fill="#9AB3DA"/>
<path d="M463.457 491.152L459.102 515.507H668.146L663.247 491.152H463.457Z" fill="#9AB3DA"/>
<path d="M591.971 195.828C591.971 195.828 551.814 179.777 510.262 198.986L518.07 221.616L586.394 219.248L591.971 195.828Z" fill="#F68D88"/>
<path d="M669.829 489.958C668.371 410.646 634.353 235.484 634.353 235.484C634.353 235.484 601.455 211.09 553.489 212.142C505.523 213.195 477.636 249.509 477.636 249.509C477.636 249.509 453.095 285.822 453.653 303.716C454.21 321.609 467.596 371.08 467.596 371.08L447.814 488.108C446.464 496.096 453.004 503.33 461.576 503.33H655.894C663.686 503.33 669.964 497.309 669.829 489.958Z" fill="#F68D88"/>
<path d="M467.123 266.81C460.539 278.658 453.348 293.937 453.653 303.715C454.211 321.609 467.597 371.08 467.597 371.08L460.98 410.223" stroke="#ECBDBB" stroke-width="2" stroke-miterlimit="10" stroke-linecap="round" stroke-linejoin="round"/>
<path d="M580.558 214.208C572.248 212.755 563.175 211.93 553.489 212.142C540.827 212.42 529.565 215.155 519.845 219.031" stroke="#ECBDBB" stroke-width="2" stroke-miterlimit="10" stroke-linecap="round" stroke-linejoin="round"/>
<path d="M705.874 456.345C698.882 465.195 693.827 470.879 693.827 470.879C693.827 470.879 665.549 470.282 657.138 445.202L662.516 430.893L674.44 377.492C674.44 377.492 631.709 351.128 600.232 315.251C554.041 262.602 587.369 218.633 615.703 227.046C649.29 237.019 707.611 291.928 738.406 322.716C751.485 335.792 766.931 357.723 754.271 383.581C748.549 395.27 718.441 440.459 705.874 456.345Z" fill="#F68D88"/>
<path d="M615.703 227.046C587.369 218.633 554.041 262.602 600.232 315.251C607.343 323.356 615.029 330.976 622.666 337.915C622.666 337.915 643.235 355.687 652.775 362.549" stroke="#ECBDBB" stroke-width="2" stroke-miterlimit="10" stroke-linecap="round" stroke-linejoin="round"/>
<path d="M693.831 470.873C693.831 470.873 698.873 465.198 705.867 456.346C695.164 433.05 671.594 430.833 662.514 430.895L657.131 445.198C665.549 470.281 693.831 470.873 693.831 470.873Z" fill="#9AB3DA"/>
<path d="M662.727 445.598L655.318 467.021C655.318 467.021 627.594 456.873 613.255 456.648C598.915 456.422 579.795 477.395 580.034 482.356C580.273 487.318 589.833 485.063 589.833 485.063C589.833 485.063 579.706 493.125 583.918 497.184C588.13 501.243 595.211 496.592 595.211 496.592C595.211 496.592 589.284 503.104 593.861 506.994C598.437 510.884 607.489 503.104 607.489 503.104C607.489 503.104 605.876 510.461 611.881 511.222C617.885 511.983 632.315 497.86 632.315 497.86C632.315 497.86 646.833 505.133 658.216 504.541C669.598 503.949 675.393 485.288 675.393 485.288L692.72 460.707C692.72 460.707 682.683 444.583 662.727 445.598Z" fill="#ECBDBB"/>
<path d="M675.872 377.154C675.872 377.154 691.287 356.56 719.25 357.724" stroke="#ECBDBB" stroke-width="2" stroke-miterlimit="10" stroke-linecap="round" stroke-linejoin="round"/>
<path d="M541.104 116.548C559.721 126.107 569.549 179.965 536.364 182.597C503.178 185.228 503.178 97.0758 541.104 116.548Z" fill="#ECBDBB"/>
<path d="M562.297 159.966C562.297 159.966 555.883 144.704 547.796 135.231C547.796 135.231 527.996 147.072 510.985 141.283C493.974 135.494 484.492 104.706 498.993 98.6542C513.495 92.602 521.303 106.285 521.303 106.285C521.303 106.285 583.77 89.1812 562.297 159.966Z" fill="#404B7C"/>
<path d="M555.324 155.23C555.324 155.23 560.623 135.494 577.355 139.441C594.088 143.388 578.75 173.387 554.767 163.387L555.324 155.23Z" fill="#ECBDBB"/>
<path d="M561.795 159.878C562.241 159.878 562.662 159.624 562.834 159.209C562.881 159.096 567.608 147.969 577.534 146.549C578.144 146.463 578.562 145.926 578.47 145.352C578.378 144.775 577.806 144.383 577.201 144.469C565.986 146.071 560.964 157.938 560.756 158.443C560.533 158.985 560.816 159.594 561.39 159.805C561.523 159.854 561.66 159.878 561.795 159.878Z" fill="#404B7C"/>
<path d="M570.826 157.962C571.427 157.962 571.923 157.512 571.94 156.94C571.943 156.797 572.011 153.376 569.287 149.28C568.961 148.788 568.27 148.637 567.75 148.948C567.229 149.257 567.071 149.906 567.399 150.399C569.741 153.92 569.71 156.858 569.709 156.887C569.698 157.467 570.185 157.948 570.798 157.961C570.807 157.962 570.817 157.962 570.826 157.962Z" fill="#404B7C"/>
<path d="M546.154 147.018C546.154 147.018 542.187 140.238 536.738 143.122C536.738 143.122 536.512 141.553 535.051 141.58C533.59 141.608 533.651 145.921 533.651 145.921C533.651 145.921 540.321 145.115 546.154 147.018Z" fill="#404B7C"/>
<path d="M514.961 151.653C514.961 151.653 515.073 144.572 519.487 146.346C519.487 146.346 519.536 145.038 520.466 144.851C522.076 144.527 522.601 148.569 522.601 148.569C522.601 148.569 517.943 148.847 514.961 151.653Z" fill="#404B7C"/>
<path d="M538.943 159.119C540.64 158.996 541.885 157.292 541.724 155.313C541.564 153.333 540.058 151.828 538.361 151.95C536.665 152.073 535.419 153.777 535.58 155.757C535.74 157.736 537.246 159.241 538.943 159.119Z" fill="#404B7C"/>
<path d="M537.872 155.085C538.324 155.085 538.69 154.739 538.69 154.312C538.69 153.885 538.324 153.54 537.872 153.54C537.419 153.54 537.053 153.885 537.053 154.312C537.053 154.739 537.419 155.085 537.872 155.085Z" fill="white"/>
<path d="M520.841 160.425C522.538 160.303 523.783 158.599 523.623 156.619C523.462 154.64 521.957 153.134 520.26 153.257C518.563 153.38 517.318 155.084 517.478 157.063C517.639 159.043 519.145 160.548 520.841 160.425Z" fill="#404B7C"/>
<path d="M519.77 156.39C520.222 156.39 520.589 156.044 520.589 155.617C520.589 155.19 520.222 154.844 519.77 154.844C519.318 154.844 518.951 155.19 518.951 155.617C518.951 156.044 519.318 156.39 519.77 156.39Z" fill="white"/>
<path d="M528.538 168.526C529.452 168.526 530.307 168.367 530.92 168.175C531.504 167.992 531.818 167.398 531.626 166.847C531.434 166.297 530.803 165.994 530.22 166.175C530.187 166.186 527.062 167.122 526.114 165.27C525.909 164.87 526 164.72 526.035 164.662C526.378 164.093 528.035 163.668 529.099 163.58C529.705 163.531 530.158 163.031 530.116 162.46L529.604 155.445C529.561 154.864 529.024 154.439 528.415 154.467C527.799 154.507 527.336 155.009 527.378 155.589L527.819 161.63C526.618 161.854 524.843 162.384 524.097 163.62C523.774 164.153 523.514 165.031 524.105 166.187C525.035 168 526.881 168.526 528.538 168.526Z" fill="#404B7C"/>
<path d="M528.936 174.973C528.936 174.973 537.388 179.608 542.095 169.841L528.936 174.973Z" fill="white"/>
</svg>
